<svg id="Capa_1" data-name="Capa 1" xmlns="http://www.w3.org/2000/svg" viewBox="0 0 2348.33 1014.7"><defs><style>.cls-1{fill:#fff;}</style></defs><path class="cls-1" d="M15.56,5.36h94.38v188h2c23.93-40.53,65.14-60.1,100.36-60.1,100.37,0,125.62,59.4,125.62,148.86V504.35H243.54V300.28c0-59.41-16.61-88.76-60.48-88.76-51.18,0-73.12,30-73.12,103.44V504.35H15.56Z" transform="translate(-15.56 -5.36)"/><path class="cls-1" d="M699.51,504.35H609.79V454h-2a121.17,121.17,0,0,1-105,60.1c-100.36,0-125.62-59.4-125.62-148.86V143h94.38V347.1c0,59.41,16.62,88.76,60.49,88.76,51.18,0,73.11-30.05,73.11-103.43V143h94.38Z" transform="translate(-15.56 -5.36)"/><path class="cls-1" d="M741.39,143h89.07V192h1.33c24.59-37.05,60.48-58.71,105-58.71,43.21,0,81.76,16.77,100.37,60.1,19.94-31.45,55.83-60.1,103.69-60.1,73.11,0,125.62,35.64,125.62,129.29V504.35H1172.1V299.58c0-48.22-4-88.06-57.83-88.06-53.17,0-63.14,46.13-63.14,91.55V504.35H956.74V301.68c0-41.94,2.67-90.16-57.16-90.16-18.61,0-63.8,12.58-63.8,83.17V504.35H741.39Z" transform="translate(-15.56 -5.36)"/><path class="cls-1" d="M1304.39,254.15c5.31-92.94,84.41-120.9,161.51-120.9,68.46,0,150.88,16.07,150.88,102.73V424c0,32.85,3.33,65.69,12,80.37H1533c-3.33-11.18-6-23.06-6.65-35-29.91,32.85-73.78,44.73-115.66,44.73-65.13,0-117-34.24-117-108.32,0-81.77,58.49-101.34,117-109.72,57.83-9.09,111.67-7,111.67-47.53,0-42.63-27.91-48.92-61.15-48.92-35.89,0-59.16,15.38-62.48,54.51Zm218,73.38c-16,14.68-49.19,15.38-78.43,21-29.25,6.29-55.83,16.77-55.83,53.11,0,37,27.25,46.13,57.82,46.13,73.78,0,76.44-61.5,76.44-83.16Z" transform="translate(-15.56 -5.36)"/><path class="cls-1" d="M1657.34,143h89.73v50.31h2a121.17,121.17,0,0,1,105-60.1c100.36,0,125.62,59.4,125.62,148.86V504.35h-94.38V300.28c0-59.41-16.62-88.76-60.49-88.76-51.18,0-73.11,30-73.11,103.44V504.35h-94.38Z" transform="translate(-15.56 -5.36)"/><path class="cls-1" d="M2185.76,133.25c108.34,0,178.13,75.48,178.13,190.79,0,114.61-69.79,190.09-178.13,190.09-107.68,0-177.47-75.48-177.47-190.09C2008.29,208.73,2078.08,133.25,2185.76,133.25Zm0,306.1c64.47,0,83.75-58,83.75-115.31,0-58-19.28-116-83.75-116-63.81,0-83.09,58-83.09,116C2102.67,381.35,2122,439.35,2185.76,439.35Z" transform="translate(-15.56 -5.36)"/><path class="cls-1" d="M310.68,775.45c.66,43.33,35.23,60.81,72.45,60.81,27.25,0,61.81-11.19,61.81-46.13,0-30-39.22-40.53-107-55.91-54.5-12.58-109-32.84-109-96.44,0-92.25,75.77-116,149.55-116,75.11,0,144.24,26.56,151.55,115.31H440.29c-2.66-38.44-30.58-48.92-64.47-48.92-21.28,0-52.51,4.19-52.51,33.55,0,35.64,53.17,40.53,107,53.81,55.17,13.27,109,34.24,109,101.33,0,95-78.44,125.8-156.87,125.8-79.76,0-157.52-31.45-161.51-127.2Z" transform="translate(-15.56 -5.36)"/><path class="cls-1" d="M795.89,658.75c-6-40.54-30.57-62.21-69.79-62.21-60.48,0-80.42,64.3-80.42,117.42,0,51.71,19.27,113.91,78.43,113.91,43.86,0,69.12-29.35,75.1-73.38h91.07c-12,95.74-75.12,148.16-165.51,148.16-103.69,0-173.48-76.88-173.48-185.2,0-112.51,63.81-195.68,175.47-195.68,81.09,0,155.54,44.72,161.52,137Z" transform="translate(-15.56 -5.36)"/><path class="cls-1" d="M1077.72,521.77c108.34,0,178.13,75.47,178.13,190.79,0,114.62-69.79,190.09-178.13,190.09-107.68,0-177.47-75.47-177.47-190.09C900.25,597.24,970,521.77,1077.72,521.77Zm0,306.1c64.47,0,83.75-58,83.75-115.31,0-58-19.28-116-83.75-116-63.81,0-83.09,58-83.09,116C994.63,769.86,1013.91,827.87,1077.72,827.87Z" transform="translate(-15.56 -5.36)"/><path class="cls-1" d="M1284.44,531.55h89.73v46.13h1.33c22.6-38.44,59.82-55.91,102.36-55.91,107.68,0,156.19,91.55,156.19,194.28,0,96.44-50.51,186.6-150.88,186.6-41.2,0-80.42-18.87-103-54.51h-1.33v171.92h-94.38Zm255.24,181.71c0-57.31-21.94-116.72-82.43-116.72-61.81,0-81.75,58-81.75,116.72s21.27,114.61,82.42,114.61C1519.73,827.87,1539.68,772,1539.68,713.26Z" transform="translate(-15.56 -5.36)"/><path class="cls-1" d="M1755.05,475.64h-94.39V393.88h94.39Zm-94.39,55.91h94.39V892.87h-94.39Z" transform="translate(-15.56 -5.36)"/><path class="cls-1" d="M1963.75,521.77c108.34,0,178.13,75.47,178.13,190.79,0,114.62-69.79,190.09-178.13,190.09-107.68,0-177.47-75.47-177.47-190.09C1786.28,597.24,1856.07,521.77,1963.75,521.77Zm0,306.1c64.47,0,83.75-58,83.75-115.31,0-58-19.28-116-83.75-116-63.81,0-83.09,58-83.09,116C1880.66,769.86,1899.94,827.87,1963.75,827.87Z" transform="translate(-15.56 -5.36)"/></svg>